<svg xmlns="http://www.w3.org/2000/svg" xmlns:xlink="http://www.w3.org/1999/xlink" version="1.1" x="0px" y="0px" fill="#fff" viewBox="0 0 100 125" enable-background="new 0 0 100 100" xml:space="preserve"><path d="M93.034,49.313l-31.582-3.112c-0.965-0.095-1.905-0.385-2.778-0.827l15.099-18.4c1.878-2.289,1.542-2.625-0.747-0.747  l-18.4,15.099c-0.441-0.873-0.732-1.813-0.827-2.778L50.687,6.966c-0.378-3.831-0.995-3.831-1.373,0l-3.112,31.582  c-0.095,0.965-0.386,1.905-0.827,2.778l-18.4-15.099c-2.289-1.878-2.625-1.542-0.747,0.747l15.099,18.4  c-0.873,0.441-1.813,0.732-2.778,0.827L6.966,49.313c-3.831,0.378-3.831,0.995,0,1.373l31.582,3.112  c0.965,0.095,1.905,0.386,2.778,0.827l-15.099,18.4c-1.878,2.289-1.542,2.625,0.747,0.747l18.4-15.099  c0.441,0.873,0.732,1.813,0.827,2.778l3.112,31.582c0.378,3.831,0.995,3.831,1.373,0l3.112-31.582  c0.095-0.965,0.386-1.905,0.827-2.778l18.4,15.099c2.289,1.878,2.625,1.542,0.747-0.747l-15.099-18.4  c0.873-0.441,1.813-0.732,2.778-0.827l31.582-3.112C96.865,50.309,96.865,49.691,93.034,49.313z"/></svg>